<?xml version="1.0" encoding="UTF-8"?>
<svg xmlns="http://www.w3.org/2000/svg" xmlns:xlink="http://www.w3.org/1999/xlink" width="15px" height="20px" viewBox="0 0 15 20" version="1.1">
<g id="surface1">
<path style=" stroke:none;fill-rule:nonzero;fill:rgb(0%,0%,0%);fill-opacity:1;" d="M 7.96875 0.253906 C 3.960938 0.253906 0 2.925781 0 7.25 C 0 10 1.546875 11.5625 2.484375 11.5625 C 2.871094 11.5625 3.09375 10.484375 3.09375 10.179688 C 3.09375 9.816406 2.167969 9.042969 2.167969 7.5625 C 2.480469 7.5625 -0.972656 9.953125 -3.199219 13.046875 C -8.566406 15.707031 -3.199219 17.675781 -1.6875 17.675781 C 2.601562 17.675781 0.386719 16.84375 4.277344 14.148438 C 10.242188 13.175781 4.277344 12.34375 3.574219 12.34375 C 1.894531 12.65625 3.574219 10.867188 4.605469 9.4375 C 5.636719 5.007812 4.605469 6.851562 0.9375 7.320312 C -2.730469 8.328125 0.9375 7.976562 1.019531 8.703125 C 1.394531 10.683594 0.480469 11.023438 -0.621094 14.480469 C -2.261719 22.648438 -0.621094 15.21875 -0.515625 15.945312 C -0.339844 18.148438 -0.382812 16.09375 -0.449219 16.078125 C -0.179688 16.136719 1.519531 13.382812 1.449219 12.855469 C 4.238281 6.105469 1.929688 13.769531 3.171875 14.261719 C 5.878906 15.667969 7.320312 14.261719 9.183594 10.21875 C 15.195312 2.53125 15.195312 2.53125 15.195312 2.53125 C 15 2.785156 11.648438 0.253906 7.96875 0.253906 Z M 7.96875 0.253906 "/>
</g>
</svg>
